 <!--?xml version="1.0" standalone="no"?-->

<svg version="1.0" xmlns="http://www.w3.org/2000/svg" width="100%" height="100%" viewBox="0 0 300.000000 169.000000" preserveAspectRatio="xMidYMid meet">
    <metadata>
    Created by potrace 1.10, written by Peter Selinger 2001-2011
    </metadata>
    <g transform="translate(0.000000,169.000000) scale(0.100000,-0.100000)" fill="#8e8e86" stroke="none">
    <path d="M293 1479 c-7 -7 -13 -20 -13 -28 0 -8 -3 -11 -7 -8 -3 4 -17 0 -31
    -9 -16 -11 -27 -13 -31 -5 -7 11 -51 4 -51 -9 0 -4 8 -10 18 -14 9 -3 23 -9
    31 -12 10 -5 11 -2 6 7 -6 11 -5 12 5 2 11 -10 17 -10 31 3 10 9 23 13 28 9
    16 -9 13 -25 -3 -25 -8 0 -17 -8 -21 -17 -5 -14 -3 -15 6 -6 6 6 18 9 27 6 10
    -4 13 -2 8 5 -4 7 -2 12 4 12 6 0 8 5 5 10 -9 15 2 12 31 -6 21 -14 24 -15 18
    -1 -3 9 1 17 10 19 13 2 12 7 -5 28 -20 24 -20 24 -14 3 5 -18 2 -23 -14 -23
    -15 0 -20 8 -23 36 -2 28 -5 33 -15 23z" class="svg-elem-1"></path>
    <path d="M427 1473 c-20 -10 -32 -12 -41 -4 -9 8 -12 4 -12 -14 0 -14 4 -25 8
    -25 4 0 8 5 8 11 0 5 4 8 10 4 5 -3 6 -13 3 -23 -6 -15 -5 -15 10 -3 9 7 17
    19 17 26 0 19 27 38 42 29 7 -5 22 -10 33 -11 16 -2 17 -1 5 6 -30 17 -56 18
    -83 4z" class="svg-elem-2"></path>
    <path d="M71 1471 c-7 -5 -11 -13 -8 -18 3 -5 -7 -10 -23 -10 -34 0 -45 -7
    -35 -22 8 -14 35 -14 35 -1 0 6 5 10 10 10 14 0 12 -43 -2 -60 -7 -8 -4 -7 8
    3 21 17 49 24 40 9 -8 -14 74 -6 87 8 10 10 9 12 -5 7 -11 -4 -22 0 -28 11 -9
    14 -10 14 -5 -5 5 -18 3 -22 -9 -17 -9 3 -16 11 -16 16 0 6 -7 8 -14 5 -11 -5
    -14 1 -11 22 4 35 -6 53 -24 42z" class="svg-elem-3"></path>
    <path d="M532 1445 c-23 -26 -42 -33 -42 -14 0 6 -12 9 -27 7 -16 -2 -27 -8
    -25 -15 1 -7 -2 -13 -8 -13 -5 0 -10 -4 -10 -8 0 -4 9 -8 19 -8 11 0 18 4 15
    7 -12 20 20 18 37 -2 14 -16 19 -18 19 -7 0 9 7 19 16 22 15 6 15 4 3 -11 -12
    -15 -12 -16 3 -10 10 3 24 0 33 -9 8 -9 15 -11 15 -5 0 5 -5 13 -10 16 -8 5
    -7 11 1 21 9 11 8 14 -5 14 -9 0 -16 5 -16 10 0 6 5 10 10 10 6 0 10 5 10 10
    0 17 -15 11 -38 -15z" class="svg-elem-4"></path>
    <path d="M588 1458 c-3 -7 1 -28 8 -47 9 -27 9 -38 1 -43 -9 -5 -9 -10 0 -19
    8 -8 13 -3 18 21 5 23 10 29 15 19 5 -7 4 -22 -2 -33 -10 -19 -10 -20 5 -7 10
    7 17 9 17 4 0 -5 11 -15 25 -21 21 -10 25 -9 25 3 0 8 -6 15 -14 15 -7 0 -19
    7 -26 15 -8 9 -9 15 -2 15 6 0 14 -4 17 -10 9 -15 41 -12 56 6 10 13 10 17 -2
    25 -10 6 -15 3 -17 -11 -2 -11 -10 -20 -18 -20 -8 0 -12 5 -9 10 3 6 -1 10 -9
    10 -9 0 -16 6 -16 13 0 8 -4 7 -10 -3 -8 -13 -10 -12 -10 3 0 9 -4 17 -10 17
    -5 0 -10 11 -10 25 0 26 -25 36 -32 13z" class="svg-elem-5"></path>
    <path d="M814 1402 c3 -27 1 -32 -14 -27 -25 8 -33 -10 -13 -26 13 -11 17 -11
    20 -1 3 6 15 12 29 12 17 0 22 -4 18 -15 -4 -8 -10 -12 -15 -9 -5 3 -9 0 -9
    -5 0 -17 18 -13 39 10 26 28 17 51 -18 42 -23 -6 -25 -5 -12 10 11 15 11 17
    -2 17 -8 0 -18 6 -20 13 -3 6 -4 -3 -3 -21z" class="svg-elem-6"></path>
    <path d="M928 1414 c-5 -4 -8 -16 -8 -26 0 -10 -4 -18 -9 -18 -5 0 -11 -6 -14
    -14 -4 -10 3 -13 26 -11 24 2 33 8 35 24 2 11 -1 21 -7 21 -5 0 -11 7 -13 16
    -2 9 -6 12 -10 8z" class="svg-elem-7"></path>
    <path d="M1002 1405 c-1 -8 -3 -22 -4 -31 -1 -9 -12 -20 -25 -25 -12 -5 -23
    -13 -23 -19 0 -17 26 -11 45 10 10 11 24 20 31 20 15 0 8 35 -10 50 -9 7 -13
    5 -14 -5z" class="svg-elem-8"></path>
    <path d="M480 1375 c0 -8 32 -35 41 -35 18 0 9 15 -16 27 -14 6 -25 10 -25 8z" class="svg-elem-9"></path>
    <path d="M1039 1348 c-19 -26 -20 -30 -6 -25 9 3 17 3 17 -2 0 -5 9 -11 20
    -14 13 -3 21 1 25 13 3 10 16 21 28 25 16 4 18 8 8 12 -8 3 -22 -4 -32 -16
    -22 -27 -38 -20 -31 14 6 33 -2 32 -29 -7z" class="svg-elem-10"></path>
    <path d="M742 1318 c3 -7 18 -14 34 -15 l29 -2 -25 14 c-31 18 -43 19 -38 3z" class="svg-elem-11"></path>
    <path d="M1106 1313 c-6 -19 -15 -23 -50 -23 -23 0 -46 -3 -50 -7 -4 -4 -31
    -8 -59 -9 -51 -1 -78 13 -54 28 8 5 6 8 -7 8 -12 0 -16 -5 -13 -14 9 -23 -48
    -35 -63 -14 -3 4 -14 -1 -23 -12 -9 -11 -14 -20 -10 -20 3 0 -2 -9 -12 -20
    -10 -11 -22 -17 -28 -13 -5 3 -7 0 -5 -8 3 -8 13 -13 22 -13 17 2 22 -11 6
    -21 -5 -3 -7 -12 -3 -21 3 -8 -3 -21 -13 -29 -18 -14 -18 -14 7 -15 24 0 26
    -3 25 -45 -1 -26 -6 -45 -12 -45 -7 0 -9 10 -6 25 7 38 -16 30 -33 -12 -24
    -58 -14 -74 48 -69 50 4 52 5 49 33 -5 57 -25 169 -33 190 -9 24 14 52 46 53
    295 9 365 13 376 26 9 11 7 14 -13 14 -13 0 -29 -5 -35 -11 -8 -8 -13 -8 -17
    0 -4 6 -3 11 2 11 13 0 22 39 11 46 -6 3 -16 1 -23 -6 -11 -8 -15 -8 -18 2 -3
    8 -8 4 -12 -9z" class="svg-elem-12"></path>
    <path d="M915 1310 c-3 -4 6 -10 20 -12 14 -3 25 -2 25 2 0 11 -39 20 -45 10z" class="svg-elem-13"></path>
    <path d="M385 1278 c6 -34 12 -44 20 -36 8 8 -6 68 -16 68 -5 0 -7 -14 -4 -32z" class="svg-elem-14"></path>
    <path d="M2095 1300 c3 -5 18 -10 32 -10 32 0 28 5 -10 14 -19 4 -26 3 -22 -4z" class="svg-elem-15"></path>
    <path d="M200 1290 c0 -12 29 -45 35 -39 2 2 -5 15 -16 28 -10 13 -19 18 -19
    11z" class="svg-elem-16"></path>
    <path d="M1418 1293 c-10 -2 -18 -9 -18 -14 0 -5 -7 -9 -16 -9 -8 0 -22 -7
    -30 -15 -13 -13 -12 -15 8 -19 282 -51 268 -47 398 -114 278 -144 251 -136
    566 -162 61 -5 133 -14 160 -20 83 -18 268 -82 280 -97 6 -7 14 -36 18 -63 4
    -27 10 -51 15 -54 18 -11 21 -100 6 -161 -9 -34 -15 -66 -13 -71 1 -5 -4 -20
    -11 -34 -11 -19 -11 -25 -1 -28 7 -3 22 -14 33 -25 l21 -21 -30 -8 c-16 -5
    -38 -6 -48 -4 -11 3 -67 1 -125 -5 -83 -7 -1204 -14 -1271 -7 -8 0 -35 0 -60
    -1 -33 -1 -41 -4 -29 -11 9 -5 125 -10 258 -11 221 -1 277 -7 203 -24 -16 -3
    -113 -12 -218 -19 -163 -12 -193 -12 -217 0 -25 14 -30 13 -63 -12 -37 -28
    -110 -42 -158 -30 -36 9 -93 62 -119 110 -31 59 -31 181 1 251 39 85 114 145
    182 145 36 0 36 3 9 41 -69 98 -162 56 -203 -92 -9 -30 -25 -81 -37 -114 -17
    -47 -20 -76 -17 -135 5 -84 18 -115 77 -182 26 -29 37 -48 29 -50 -7 -3 -58 3
    -113 13 -100 18 -480 59 -544 59 -31 0 -33 2 -26 27 9 40 20 47 46 30 18 -12
    88 -20 269 -31 135 -9 256 -16 270 -16 22 1 23 2 7 11 -22 13 -294 38 -524 48
    -19 1 -43 54 -33 72 12 21 -16 191 -43 258 -28 69 -51 85 -77 53 -31 -38 -41
    -95 -39 -226 1 -68 -1 -128 -5 -135 -4 -6 -3 -11 2 -11 5 0 12 -10 15 -22 2
    -13 8 -31 12 -40 6 -16 3 -17 -24 -12 -33 7 -44 -9 -14 -21 10 -3 81 -10 158
    -16 243 -16 497 -45 526 -60 18 -9 359 -34 599 -44 201 -8 1262 13 1275 26 11
    11 -29 12 -520 8 -662 -6 -1015 1 -1015 22 0 5 15 16 33 26 24 12 63 17 152
    20 66 1 176 8 245 14 69 7 256 14 415 16 160 2 346 7 415 12 69 4 129 4 135
    -1 6 -5 -8 -24 -35 -48 -25 -21 -39 -39 -32 -40 21 0 65 26 92 55 28 30 116
    75 148 75 18 0 20 -3 12 -31 -9 -31 -9 -31 9 -13 10 10 16 27 13 37 -6 22 7
    22 24 0 12 -17 13 -17 10 2 -2 11 1 25 5 31 11 13 1 44 -13 44 -5 0 -6 5 -3
    10 3 6 2 10 -3 10 -5 0 -10 10 -10 23 0 12 -1 27 -2 32 -1 6 -2 17 0 25 1 11
    4 9 10 -5 7 -16 9 -12 9 18 1 21 5 36 10 33 5 -4 7 3 4 14 -6 21 6 27 23 10 7
    -7 11 -6 11 4 0 8 -7 18 -15 21 -13 5 -12 8 4 20 18 14 18 14 -4 15 -19 0 -21
    2 -10 19 10 17 9 23 -6 40 -11 12 -14 21 -8 21 7 0 12 4 12 10 0 5 -6 7 -14 4
    -8 -3 -17 -1 -21 5 -3 6 0 11 8 11 19 0 15 44 -5 48 -10 2 -14 11 -10 27 3 19
    -1 25 -22 31 -14 3 -26 10 -26 16 0 5 -4 6 -10 3 -5 -3 -10 -1 -10 4 0 6 -9
    11 -20 11 -11 0 -20 5 -20 10 0 6 -11 10 -25 10 -14 0 -25 5 -25 10 0 6 -17
    11 -37 12 l-38 1 35 4 c19 3 40 9 45 15 7 8 3 9 -14 5 -14 -3 -32 -1 -40 6
    -12 9 -13 9 -7 0 5 -9 0 -13 -14 -13 -15 0 -20 5 -17 14 8 21 -3 27 -20 10 -9
    -8 -23 -14 -32 -12 -18 4 -22 29 -6 41 6 5 4 7 -5 4 -8 -2 -15 -10 -15 -18 0
    -15 -16 -16 -60 -5 -14 4 -25 2 -25 -3 0 -14 -33 -1 -43 16 -9 15 -37 18 -37
    4 0 -5 6 -12 13 -14 6 -3 -1 -4 -18 -2 -16 2 -38 6 -47 10 -19 8 -25 25 -8 25
    6 0 10 5 10 10 0 7 -6 7 -20 0 -11 -6 -20 -18 -20 -26 0 -12 -5 -14 -17 -9
    -10 4 -29 8 -43 9 -14 1 -31 5 -37 9 -6 4 -14 3 -17 -2 -3 -5 -15 -7 -26 -4
    -11 3 -18 9 -15 13 3 4 -2 11 -11 14 -22 8 -26 8 -19 -4 12 -20 -41 -10 -59
    11 -15 18 -20 19 -27 8 -8 -12 -11 -12 -19 1 -7 11 -10 11 -10 2 0 -7 -4 -11
    -10 -7 -5 3 -7 12 -3 20 4 11 -2 15 -22 15 -14 0 -34 7 -43 16 -15 15 -15 17
    1 29 9 6 14 15 10 18 -3 4 -12 -2 -20 -13 -17 -24 -33 -26 -33 -4 0 8 -4 13
    -8 10 -4 -2 -14 -1 -22 4 -13 8 -12 12 3 27 17 17 19 17 28 0 6 -10 15 -14 22
    -10 10 6 32 7 67 4 7 -1 7 -7 1 -19 -7 -13 -6 -23 1 -30 9 -9 9 -12 -2 -12 -7
    0 -10 -3 -7 -6 11 -11 36 16 30 32 -3 8 0 14 6 14 6 0 11 -6 11 -14 0 -19 21
    -26 43 -14 9 5 23 6 30 2 9 -6 8 -3 -1 8 -10 13 -10 18 -1 24 8 4 9 3 5 -5 -5
    -8 9 -10 53 -7 34 3 65 7 70 10 4 3 17 -1 27 -9 15 -11 16 -15 4 -16 -8 -1
    -19 -1 -23 0 -5 1 -6 -3 -3 -8 6 -8 63 6 76 19 7 7 60 7 60 0 0 -3 15 -5 33
    -4 42 0 51 -5 36 -22 -9 -11 -8 -14 3 -14 8 0 19 5 25 11 8 8 13 7 18 -1 4 -7
    1 -16 -6 -21 -7 -4 -10 -11 -6 -15 3 -4 14 3 24 15 10 12 28 23 41 24 12 1 22
    6 22 12 0 5 4 4 9 -4 8 -12 12 -13 25 -1 14 11 16 10 10 -5 -6 -14 -3 -16 16
    -10 15 5 25 2 31 -6 6 -10 9 -11 9 -1 0 6 5 12 11 12 5 0 8 -4 5 -8 -2 -4 -1
    -14 3 -21 7 -10 15 -9 45 3 34 14 54 42 21 30 -8 -4 -15 -10 -15 -16 0 -5 -4
    -6 -10 -3 -17 11 -11 24 20 40 17 9 30 12 30 8 0 -4 5 -2 12 5 14 14 52 17 44
    3 -3 -5 1 -8 9 -7 7 0 14 -3 14 -7 1 -16 62 -59 76 -53 8 3 15 1 15 -5 0 -6 5
    -7 10 -4 6 4 17 2 25 -5 9 -8 15 -8 20 0 3 6 11 8 16 4 5 -3 6 -10 3 -16 -5
    -7 -2 -8 6 -3 9 6 5 15 -16 34 -27 26 -64 36 -64 18 0 -4 -4 -6 -9 -3 -5 4
    -11 1 -13 -6 -5 -13 -28 -2 -28 13 0 6 4 8 9 4 18 -11 22 15 6 37 -9 13 -15
    16 -13 8 1 -8 -2 -16 -7 -18 -6 -1 -11 6 -13 18 -2 11 -8 17 -14 14 -6 -4 -16
    0 -22 8 -6 8 -22 18 -34 23 -20 6 -23 4 -20 -12 5 -26 -23 -46 -38 -25 -10 14
    -13 13 -23 -6 -6 -12 -18 -22 -26 -22 -7 0 -15 -6 -18 -12 -3 -10 -9 -8 -24 5
    -11 10 -27 15 -37 11 -12 -5 -16 0 -17 17 -1 18 -2 20 -6 6 -4 -14 -8 -16 -19
    -6 -11 9 -14 8 -14 -6 0 -10 -3 -15 -7 -12 -3 4 -12 2 -20 -4 -7 -6 -13 -8
    -13 -4 0 4 -7 2 -15 -5 -12 -10 -15 -9 -15 6 0 16 -2 17 -10 4 -5 -8 -10 -10
    -10 -4 0 23 -84 39 -197 39 -69 0 -113 4 -113 10 0 6 -7 1 -15 -9 -14 -19 -15
    -19 -34 3 -16 19 -23 21 -40 11 -12 -6 -21 -15 -21 -20 0 -6 -4 -10 -10 -10
    -5 0 -10 9 -10 20 0 16 -5 18 -37 14 -30 -3 -41 0 -54 17 -15 20 -16 20 -34 2
    -18 -17 -18 -17 -13 5 3 12 2 20 -3 16 -5 -3 -9 3 -9 13 0 15 -2 15 -15 -4
    -11 -15 -23 -20 -47 -18 -18 2 -33 4 -33 5 0 1 -8 3 -18 5 -10 2 -27 11 -38
    21 -18 16 -19 16 -25 0 -5 -13 -9 -14 -14 -5 -6 9 -12 8 -25 -4 -20 -21 -29
    -21 -45 -2 -11 13 -14 13 -27 0 -8 -8 -18 -15 -23 -15 -15 0 -23 21 -11 33 29
    29 2 44 -51 30z m33 -17 c-16 -19 -51 -28 -44 -10 4 11 20 19 47 23 5 0 3 -5
    -3 -13z m299 -87 c0 -8 6 -7 17 2 15 13 15 12 4 -8 -14 -27 -26 -29 -35 -7 -3
    8 -11 12 -17 8 -8 -4 -9 -3 -5 4 9 15 36 16 36 1z m240 -44 c0 -18 -26 -20
    -36 -3 -5 8 -2 9 9 5 10 -3 17 -2 17 3 0 6 2 10 5 10 3 0 5 -7 5 -15z m-892
    -352 c2 -7 -3 -13 -11 -13 -9 0 -17 -3 -19 -7 -1 -5 -18 -16 -37 -27 l-33 -18
    7 23 c12 38 37 60 64 57 13 -2 26 -9 29 -15z m-809 -125 c12 -32 30 -178 24
    -195 -3 -7 -9 -13 -15 -13 -5 0 -7 4 -4 8 7 12 -15 92 -25 92 -5 0 -18 14 -28
    31 -15 25 -17 37 -10 58 17 44 45 53 58 19z m-55 -127 c5 -42 3 -66 -6 -80
    -17 -28 -32 -27 -24 2 3 12 6 48 6 80 0 75 16 73 24 -2z m31 2 c11 -25 14 -47
    21 -128 6 -62 4 -72 -14 -88 -12 -11 -25 -16 -31 -13 -12 8 -35 86 -27 93 11
    11 36 -20 36 -45 0 -45 13 -14 16 38 2 44 0 50 -17 50 -19 0 -19 1 -2 26 13
    21 15 32 6 55 -12 31 0 41 12 12z m2420 -193 c-3 -5 -18 -9 -33 -9 l-27 1 30
    8 c17 4 31 8 33 9 2 0 0 -3 -3 -9z m-542 -17 c-62 -2 -164 -2 -225 0 -62 1
    -12 3 112 3 124 0 174 -2 113 -3z" class="svg-elem-17"></path>
    <path d="M263 634 c-3 -8 -1 -25 4 -37 9 -20 11 -19 15 16 4 37 -7 51 -19 21z" class="svg-elem-18"></path>
    <path d="M1287 1262 c5 -12 1 -14 -15 -10 -12 4 -22 2 -22 -3 0 -5 18 -9 40
    -9 30 0 38 3 34 14 -3 8 -14 16 -24 19 -14 3 -17 1 -13 -11z" class="svg-elem-19"></path>
    <path d="M335 1250 c-11 -5 -14 -9 -7 -9 6 -1 12 -8 12 -16 0 -18 16 -20 26
    -3 5 7 3 8 -6 3 -9 -5 -10 -2 -5 14 3 11 5 21 3 20 -2 0 -12 -4 -23 -9z" class="svg-elem-20"></path>
    <path d="M907 1223 c-49 -3 -57 -7 -53 -21 3 -9 15 -47 26 -84 11 -37 27 -73
    34 -81 17 -17 327 -31 611 -29 99 1 237 -1 308 -5 70 -5 127 -8 127 -7 0 4
    -289 164 -305 169 -22 7 -1 -7 115 -78 41 -25 84 -53 95 -61 19 -15 18 -15
    -10 -7 -41 13 -123 24 -163 23 -29 0 -33 2 -29 19 3 11 0 19 -7 19 -7 0 -12
    -10 -12 -22 1 -21 -3 -23 -39 -21 -91 5 -142 12 -177 27 -56 24 -70 22 -58
    -10 12 -32 13 -44 1 -25 -6 9 -31 15 -70 17 -49 2 -61 -1 -64 -14 -3 -10 -5
    -2 -6 16 -1 30 -2 32 -17 18 -8 -9 -25 -17 -37 -17 -12 -1 -33 -2 -47 -3 -14
    -1 -32 4 -40 11 -12 9 -55 12 -55 3 0 -1 -11 -4 -24 -6 -33 -6 -99 25 -80 37
    12 8 12 11 -1 19 -8 5 -18 11 -22 12 -3 2 -8 14 -10 27 -3 21 1 24 37 28 55 6
    57 13 4 14 l-44 1 35 10 c44 13 152 5 254 -17 61 -14 84 -15 98 -6 10 6 18 7
    18 2 0 -11 96 -35 109 -27 5 3 11 2 13 -3 4 -12 91 -50 101 -44 13 8 -25 32
    -63 39 -33 7 -34 8 -10 15 l25 7 -26 1 c-14 1 -34 8 -45 16 -18 14 -17 14 16
    16 34 1 33 2 -10 10 -53 10 -419 19 -503 12z m368 -34 c7 -7 1 -8 -20 -3 -46
    11 -67 26 -25 19 19 -3 39 -10 45 -16z m85 -9 c12 -8 11 -10 -7 -10 -13 0 -23
    5 -23 10 0 13 11 13 30 0z" class="svg-elem-21"></path>
    <path d="M290 1195 c-17 -21 -8 -28 15 -11 11 8 14 15 8 19 -6 4 -16 0 -23 -8z" class="svg-elem-22"></path>
    <path d="M2978 1199 c-10 -5 -18 -21 -18 -34 0 -16 -6 -25 -15 -25 -8 0 -15
    -5 -15 -11 0 -5 -4 -8 -9 -5 -5 3 -7 15 -4 26 3 11 0 20 -6 20 -19 0 -24 -28
    -8 -45 17 -17 47 -20 47 -5 0 5 6 7 14 4 18 -7 28 9 30 52 1 19 1 34 1 34 0 0
    -8 -5 -17 -11z" class="svg-elem-23"></path>
    <path d="M572 1178 c1 -16 6 -28 10 -28 11 0 10 22 -2 40 -8 11 -9 9 -8 -12z" class="svg-elem-24"></path>
    <path d="M1496 1191 c17 -4 36 -11 42 -15 7 -4 12 -3 12 2 0 11 -35 22 -65 21
    -12 -1 -8 -4 11 -8z" class="svg-elem-25"></path>
    <path d="M519 1174 c-12 -14 -11 -16 5 -13 11 2 21 10 24 17 5 17 -13 15 -29
    -4z" class="svg-elem-26"></path>
    <path d="M190 1171 c-8 -6 -18 -7 -22 -5 -14 9 -9 -4 8 -21 9 -9 24 -13 35
    -10 13 4 18 2 16 -7 -2 -7 -2 -10 0 -5 3 4 9 5 14 1 5 -3 9 -1 9 5 0 6 -11 13
    -25 17 -14 3 -25 11 -25 16 0 6 9 8 20 5 11 -3 20 -1 20 4 0 12 -31 11 -50 0z" class="svg-elem-27"></path>
    <path d="M1580 1155 c14 -8 30 -14 35 -14 6 0 -1 6 -15 14 -14 8 -29 14 -35
    14 -5 0 1 -6 15 -14z" class="svg-elem-28"></path>
    <path d="M678 1151 c11 -7 11 -11 -2 -23 -8 -9 -12 -19 -8 -24 4 -5 -2 -2 -13
    7 -28 23 -50 29 -66 18 -8 -5 -9 -9 -3 -9 6 0 11 -7 11 -16 0 -12 -8 -14 -34
    -11 -30 4 -33 3 -27 -15 4 -14 2 -18 -5 -14 -6 4 -11 0 -11 -8 0 -9 -7 -16
    -16 -16 -10 0 -13 -6 -9 -19 5 -15 1 -18 -21 -13 -16 3 -21 7 -14 12 7 5 8 10
    3 13 -6 4 -16 -6 -22 -20 -7 -15 -15 -22 -19 -17 -10 15 -51 24 -58 13 -3 -5
    -12 -9 -21 -9 -12 0 -13 3 -4 13 11 14 5 27 -11 27 -5 0 -7 -4 -4 -9 10 -15
    -22 -21 -36 -7 -9 8 -21 10 -33 5 -11 -4 -14 -8 -7 -10 23 -3 27 -5 60 -19 17
    -8 32 -18 32 -22 0 -14 -41 -29 -62 -22 -12 4 -18 2 -14 -4 7 -12 -18 -35 -27
    -25 -4 3 -7 1 -7 -6 0 -8 -6 -11 -16 -7 -11 4 -15 2 -11 -7 3 -8 -5 -25 -18
    -39 -17 -19 -21 -28 -12 -37 8 -8 7 -11 -5 -11 -9 0 -23 8 -30 18 -7 9 -20 18
    -28 20 -8 1 -3 -8 13 -21 15 -12 27 -28 27 -35 0 -7 4 -12 9 -12 5 0 0 -16
    -10 -37 -17 -33 -17 -37 -2 -48 15 -11 15 -13 -3 -23 -10 -6 -14 -12 -9 -12 6
    0 9 -33 8 -82 -2 -98 -11 -108 -90 -108 -38 0 -53 -4 -53 -14 0 -10 18 -13 75
    -12 41 1 75 -2 75 -6 0 -4 6 -8 14 -8 9 0 12 12 10 43 -14 180 1 301 46 363
    16 23 27 44 23 47 -3 3 8 9 23 13 16 3 49 19 74 34 43 27 48 28 115 18 39 -5
    100 -8 138 -5 52 3 67 1 67 -9 0 -8 -6 -14 -14 -14 -8 0 -30 -18 -49 -40 -31
    -37 -38 -40 -86 -40 -32 0 -50 -4 -46 -10 9 -15 -16 -12 -29 3 -8 9 -25 11
    -56 6 -42 -6 -22 -14 23 -10 11 2 17 -5 17 -18 0 -26 21 -27 43 -3 22 24 102
    19 92 -7 -28 -67 -45 -130 -45 -164 0 -41 7 -47 13 -11 1 10 6 24 9 30 4 6 23
    42 43 80 21 38 40 72 43 75 4 4 45 1 92 -7 47 -8 93 -11 104 -8 12 4 16 2 12
    -5 -4 -6 0 -11 8 -11 9 0 16 5 16 12 0 9 3 9 11 1 7 -7 9 -23 5 -38 -6 -24
    -11 -27 -41 -23 -22 2 -35 0 -35 -7 0 -20 12 -25 32 -14 26 14 29 10 21 -34
    -5 -33 -9 -37 -34 -37 -21 0 -29 -5 -28 -17 0 -11 3 -13 6 -5 2 6 14 12 25 12
    16 0 19 -5 16 -25 -4 -16 -1 -25 8 -25 7 0 14 10 16 23 2 12 9 21 16 19 14 -2
    16 15 2 20 -6 2 -6 16 1 41 5 21 14 35 20 32 5 -4 9 -1 9 4 0 6 -3 11 -8 11
    -4 0 -6 17 -4 39 l4 38 -48 7 c-27 3 -86 9 -131 13 -46 3 -83 8 -83 10 0 16
    26 45 51 59 l31 16 -28 29 c-26 27 -33 29 -89 27 -54 -3 -60 -1 -63 18 -5 35
    28 63 92 76 56 12 59 12 78 -12 l20 -24 -4 34 c-2 23 -8 34 -16 32 -8 -1 -11
    2 -7 8 3 6 11 8 16 5 5 -4 9 1 9 10 0 9 -4 14 -9 11 -5 -3 -11 1 -15 9 -3 8
    -11 15 -18 15 -10 0 -10 -2 0 -9z" class="svg-elem-29"></path>
    <path d="M126 1118 c-22 -31 -20 -41 4 -26 17 11 22 10 29 0 7 -11 9 -11 14 2
    4 9 3 15 -1 15 -22 -4 -33 3 -28 16 8 22 0 18 -18 -7z" class="svg-elem-30"></path>
    <path d="M382 1111 c2 -7 7 -12 11 -12 12 1 9 15 -3 20 -7 2 -11 -2 -8 -8z" class="svg-elem-31"></path>
    <path d="M950 1111 c0 -10 42 -23 49 -15 7 6 -20 24 -36 24 -7 0 -13 -4 -13
    -9z" class="svg-elem-32"></path>
    <path d="M1235 1111 c19 -8 19 -9 -5 -14 -16 -3 -10 -4 15 -4 22 1 56 -2 75
    -6 34 -7 34 -7 10 7 -14 7 -45 16 -70 20 -29 4 -38 3 -25 -3z" class="svg-elem-33"></path>
    <path d="M2685 1091 c0 -16 3 -27 8 -24 4 2 7 15 7 29 0 13 -3 24 -7 24 -5 0
    -8 -13 -8 -29z" class="svg-elem-34"></path>
    <path d="M2720 1114 c0 -6 6 -17 14 -23 11 -9 16 -9 22 1 4 7 4 10 -1 6 -4 -4
    -14 0 -21 10 -7 9 -14 12 -14 6z" class="svg-elem-35"></path>
    <path d="M2003 1096 c-16 -19 -4 -29 13 -11 8 7 14 16 14 19 0 10 -15 6 -27
    -8z" class="svg-elem-36"></path>
    <path d="M1595 1081 c18 -12 31 -16 34 -10 4 13 2 15 -34 23 l-30 7 30 -20z" class="svg-elem-37"></path>
    <path d="M2165 1090 c3 -5 16 -10 28 -10 18 0 19 2 7 10 -20 13 -43 13 -35 0z" class="svg-elem-38"></path>
    <path d="M2950 1092 c1 -17 17 -29 32 -23 15 5 13 8 -7 18 -14 6 -25 8 -25 5z" class="svg-elem-39"></path>
    <path d="M290 1072 c0 -15 25 -21 41 -11 9 5 9 9 2 9 -6 0 -18 3 -27 6 -9 3
    -16 2 -16 -4z" class="svg-elem-40"></path>
    <path d="M189 1053 c-12 -16 -12 -17 2 -6 9 7 18 10 21 7 3 -3 9 -1 13 5 11
    18 -22 12 -36 -6z" class="svg-elem-41"></path>
    <path d="M2450 1050 c-12 -8 -11 -10 8 -10 12 0 22 5 22 10 0 13 -11 13 -30 0z" class="svg-elem-42"></path>
    <path d="M2710 1046 c0 -9 7 -16 16 -16 17 0 14 22 -4 28 -7 2 -12 -3 -12 -12z" class="svg-elem-43"></path>
    <path d="M203 996 c4 -10 7 -22 7 -27 0 -5 8 -9 18 -9 13 0 14 2 4 9 -7 4 -12
    14 -10 21 2 7 -3 15 -11 18 -10 3 -12 0 -8 -12z" class="svg-elem-44"></path>
    <path d="M2754 998 c12 -7 21 -7 28 0 6 6 0 10 -18 10 -23 0 -24 -2 -10 -10z" class="svg-elem-45"></path>
    <path d="M2916 965 c-23 -17 -40 -20 -31 -5 3 6 2 10 -4 10 -15 0 -23 -18 -11
    -25 12 -7 80 15 80 27 0 12 -13 9 -34 -7z" class="svg-elem-46"></path>
    <path d="M87 921 c6 -24 14 -26 31 -9 9 9 12 9 12 0 0 -7 5 -12 11 -12 8 0 9
    4 0 13 -6 8 -7 18 -3 23 4 4 -1 2 -10 -5 -14 -10 -21 -11 -32 -2 -12 10 -13 8
    -9 -8z" class="svg-elem-47"></path>
    <path d="M1300 911 c0 -67 71 -157 142 -179 18 -6 78 -18 133 -26 55 -9 113
    -18 128 -21 34 -6 47 21 47 99 0 63 -9 74 -83 91 -28 8 -87 23 -131 34 -43 11
    -114 24 -157 27 l-79 7 0 -32z m112 8 c29 -5 62 -14 73 -19 11 -6 61 -19 110
    -30 144 -32 131 -23 134 -91 2 -52 0 -59 -17 -59 -12 0 -24 11 -32 31 -19 45
    -65 75 -155 99 -44 12 -87 24 -96 27 -9 3 -20 0 -24 -6 -10 -17 14 -80 35 -91
    24 -13 40 -13 40 1 0 5 -4 8 -9 5 -5 -3 -14 1 -21 9 -10 13 -8 15 13 15 14 0
    37 4 51 10 14 5 33 7 42 3 15 -6 15 -7 -1 -19 -14 -10 -22 -11 -32 -3 -9 8
    -13 8 -13 0 0 -12 2 -13 42 -15 15 -1 30 -5 34 -9 17 -17 25 -5 9 13 -15 17
    -16 20 -3 20 15 0 33 -26 30 -42 -1 -5 2 -8 8 -8 5 0 14 -10 20 -22 10 -21 10
    -21 -3 -6 -11 14 -24 16 -67 11 -36 -4 -51 -3 -47 4 4 6 0 14 -9 17 -10 4 -13
    2 -8 -6 5 -8 -5 -9 -35 -5 -47 6 -86 36 -95 72 -4 14 -16 25 -33 30 -21 5 -24
    8 -12 16 9 6 10 9 2 9 -7 0 -13 11 -13 25 0 28 6 30 82 14z" class="svg-elem-48"></path>
    <path d="M1353 902 c-6 -4 6 -8 29 -8 26 -1 35 2 27 7 -17 11 -40 11 -56 1z" class="svg-elem-49"></path>
    <path d="M2772 931 c6 -20 48 -35 48 -16 0 9 -6 12 -16 8 -9 -3 -20 0 -26 8
    -8 12 -9 12 -6 0z" class="svg-elem-50"></path>
    <path d="M2294 909 c-3 -5 1 -9 10 -9 8 0 21 -3 30 -6 9 -3 16 -2 16 4 0 13
    -49 22 -56 11z" class="svg-elem-51"></path>
    <path d="M440 886 c0 -14 29 -31 38 -21 6 6 -18 35 -29 35 -5 0 -9 -6 -9 -14z" class="svg-elem-52"></path>
    <path d="M2920 859 c0 -6 -7 -9 -15 -5 -8 3 -15 1 -15 -4 0 -6 9 -10 20 -10
    11 0 20 7 20 15 0 8 -2 15 -5 15 -3 0 -5 -5 -5 -11z" class="svg-elem-53"></path>
    <path d="M1960 843 c-47 -2 -89 -8 -94 -13 -6 -6 -2 -23 10 -45 l19 -35 183 0
    183 0 20 35 c39 66 118 58 164 -18 8 -13 33 -18 122 -23 l113 -7 -2 36 c-1 43
    3 41 -146 62 -106 14 -330 17 -572 8z" class="svg-elem-54"></path>
    <path d="M2705 835 c9 -21 8 -117 -1 -147 -6 -22 6 -23 51 -4 41 17 50 50 11
    40 -28 -7 -43 11 -26 31 14 17 5 51 -23 79 -19 20 -20 20 -12 1z" class="svg-elem-55"></path>
    <path d="M2327 792 c-15 -17 -27 -86 -16 -96 10 -10 60 46 55 61 -3 8 -6 23
    -6 34 0 24 -12 24 -33 1z" class="svg-elem-56"></path>
    <path d="M2382 773 c5 -21 19 -48 31 -60 22 -25 17 -29 -13 -13 -13 7 -27 6
    -44 -2 -33 -14 -33 -31 -1 -48 37 -20 72 -1 80 44 8 42 0 70 -28 96 -30 29
    -37 25 -25 -17z" class="svg-elem-57"></path>
    <path d="M1152 735 c-7 -8 -9 -15 -5 -16 4 0 -10 -7 -31 -15 -22 -8 -49 -12
    -60 -9 -18 5 -19 4 -6 -7 9 -7 29 -30 44 -50 37 -50 64 -50 92 0 18 32 20 41
    9 71 -13 40 -25 46 -43 26z m8 -65 c0 -11 -6 -20 -14 -20 -18 0 -29 16 -21 30
    11 18 35 11 35 -10z" class="svg-elem-58"></path>
    <path d="M1917 716 c23 -39 49 -66 72 -75 76 -29 462 -44 590 -22 71 11 86 22
    96 64 l7 27 -110 0 -110 0 -19 -37 c-15 -31 -24 -39 -52 -41 -43 -4 -73 11
    -94 48 -15 25 -24 29 -80 34 -128 11 -306 12 -300 2z m321 -42 c12 -4 22 -10
    22 -15 0 -10 -128 -1 -170 12 -31 9 113 12 148 3z m346 -3 c5 -8 -49 -21 -89
    -21 -20 1 -20 1 -1 15 22 16 82 20 90 6z" class="svg-elem-59"></path>
    <path d="M2885 680 c7 -12 32 -13 39 -2 2 4 -7 9 -20 10 -15 1 -22 -2 -19 -8z" class="svg-elem-60"></path>
    <path d="M1004 599 c2 -35 0 -69 -6 -76 -5 -6 -8 -25 -6 -42 l3 -30 48 29 c26
    17 47 37 47 45 0 12 -53 96 -82 129 -4 6 -6 -19 -4 -55z m56 -63 c0 -21 -6
    -36 -15 -40 -16 -6 -21 27 -9 58 11 28 24 17 24 -18z" class="svg-elem-61"></path>
    <path d="M1906 629 c34 -37 69 -49 146 -48 l73 1 -79 14 c-43 8 -96 23 -118
    34 l-41 19 19 -20z" class="svg-elem-62"></path>
    <path d="M1080 601 c14 -18 30 -40 35 -50 6 -9 15 -19 20 -23 6 -5 5 -8 -2 -8
    -7 0 -13 -7 -13 -15 0 -8 -4 -15 -10 -15 -5 0 -7 -7 -4 -15 4 -8 12 -15 20
    -15 7 0 17 -7 22 -16 12 -22 30 -10 30 20 0 19 -5 24 -20 21 -17 -4 -19 0 -15
    28 3 18 8 40 12 50 4 10 4 17 -1 16 -21 -3 -34 2 -65 29 l-34 27 25 -34z" class="svg-elem-63"></path>
    <path d="M1192 603 c-25 -28 -29 -63 -8 -63 18 0 27 -25 14 -38 -13 -13 -2
    -32 18 -32 11 0 8 -9 -11 -37 -19 -29 -25 -50 -25 -90 0 -58 6 -62 50 -36 27
    15 27 18 13 39 -11 17 -12 27 -4 43 15 28 3 131 -15 131 -8 0 -14 7 -14 16 0
    10 6 14 14 11 11 -4 12 2 4 36 -5 23 -10 42 -11 43 -1 2 -12 -9 -25 -23z m18
    -34 c0 -11 -4 -17 -10 -14 -5 3 -10 13 -10 21 0 8 5 14 10 14 6 0 10 -9 10
    -21z" class="svg-elem-64"></path>
    <path d="M2628 597 c-21 -6 -38 -15 -38 -20 0 -12 62 2 80 19 16 16 11 16 -42
    1z" class="svg-elem-65"></path>
    <path d="M2130 570 c0 -19 -7 -20 -100 -20 l-99 0 -50 -74 c-28 -40 -47 -76
    -44 -80 8 -8 651 -6 768 3 l90 6 -2 45 c0 25 -6 57 -12 73 -9 23 -16 27 -51
    27 -39 0 -40 -1 -40 -35 l0 -35 -169 0 c-92 0 -189 -3 -215 -6 l-46 -7 0 62
    c0 48 -3 61 -15 61 -8 0 -15 -9 -15 -20z m4 -100 l27 -41 -122 3 c-76 2 -124
    7 -126 14 -2 6 8 23 21 37 23 25 32 27 99 27 l74 0 27 -40z m519 -16 c-5 -13
    -53 -21 -53 -8 0 3 8 16 18 29 15 21 18 22 29 9 6 -9 9 -22 6 -30z" class="svg-elem-66"></path>
    <path d="M435 567 c3 -10 5 -22 5 -27 0 -17 52 -70 68 -69 12 0 10 3 -5 9 -13
    5 -23 16 -23 25 0 8 -4 15 -8 15 -5 0 -16 15 -26 33 -9 17 -14 24 -11 14z" class="svg-elem-67"></path>
    <path d="M735 560 c27 -12 35 -12 35 0 0 6 -12 10 -27 9 -25 0 -26 -1 -8 -9z" class="svg-elem-68"></path>
    <path d="M1800 558 c-31 -6 -150 -8 -270 -5 -121 3 -224 1 -235 -4 -13 -6 6
    -8 58 -5 42 2 77 2 77 -1 0 -4 -7 -15 -17 -25 -15 -17 -13 -18 68 -18 46 0
    121 -2 167 -5 67 -3 84 -1 89 11 3 8 32 22 64 31 33 9 59 20 59 25 0 4 -1 7
    -2 7 -2 -1 -28 -6 -58 -11z" class="svg-elem-69"></path>
    <path d="M2700 556 c0 -1 5 -17 11 -33 9 -27 13 -30 37 -24 30 8 42 39 20 52
    -12 8 -68 13 -68 5z" class="svg-elem-70"></path>
    <path d="M2851 533 c-1 -16 5 -23 17 -23 10 0 13 3 6 8 -6 4 -14 14 -17 22 -4
    10 -6 8 -6 -7z" class="svg-elem-71"></path>
    <path d="M446 481 c6 -22 4 -23 -25 -19 -17 2 -31 1 -31 -4 0 -4 10 -8 23 -8
    12 0 99 -15 192 -34 202 -40 253 -47 261 -35 3 5 2 9 -1 9 -28 0 -372 63 -386
    71 -10 5 -23 17 -29 27 -9 14 -10 13 -4 -7z" class="svg-elem-72"></path>
    <path d="M1373 488 c-4 -7 -8 -17 -9 -23 -1 -5 -5 -17 -9 -26 -8 -20 53 -29
    201 -29 81 0 104 3 115 16 7 9 22 20 34 24 18 8 -138 15 -260 12 -40 -1 -69
    13 -59 29 3 5 3 9 0 9 -3 0 -8 -6 -13 -12z" class="svg-elem-73"></path>
    <path d="M2963 486 c0 -9 4 -16 9 -16 5 0 6 -10 3 -21 -5 -15 -4 -19 4 -15 15
    9 14 28 -2 50 -12 16 -14 16 -14 2z" class="svg-elem-74"></path>
    <path d="M543 463 c9 -2 25 -2 35 0 9 3 1 5 -18 5 -19 0 -27 -2 -17 -5z" class="svg-elem-75"></path>
    <path d="M2730 445 c0 -15 6 -25 14 -25 7 0 16 11 18 25 4 19 1 25 -13 25 -14
    0 -19 -7 -19 -25z" class="svg-elem-76"></path>
    <path d="M655 450 c33 -4 98 -10 145 -13 67 -4 74 -4 32 3 -29 4 -95 10 -145
    13 -75 5 -81 4 -32 -3z" class="svg-elem-77"></path>
    <path d="M1098 431 c14 -8 -33 -23 -83 -27 -40 -3 -45 -4 -45 -13 0 -5 10 -11
    23 -15 27 -7 123 -85 120 -97 -2 -5 2 -9 8 -9 12 0 10 127 -3 153 -5 9 -14 17
    -21 17 -8 0 -8 -3 1 -9z" class="svg-elem-78"></path>
    <path d="M380 411 c17 -10 84 -19 190 -26 102 -7 78 1 -60 20 -133 18 -152 18
    -130 6z" class="svg-elem-79"></path>
    <path d="M57 398 c-7 -4 16 -7 51 -7 34 1 61 4 58 6 -7 8 -98 8 -109 1z" class="svg-elem-80"></path>
    <path d="M2820 312 c0 -4 9 -8 20 -8 11 0 20 4 20 8 0 4 -9 8 -20 8 -11 0 -20
    -4 -20 -8z" class="svg-elem-81"></path>
    <path d="M2713 285 c-8 -8 -24 -12 -40 -9 -18 3 -24 2 -18 -4 15 -15 165 -26
    165 -13 0 6 -13 11 -30 11 -22 0 -30 5 -31 18 0 14 -2 14 -9 -3 -7 -17 -9 -17
    -9 -2 -1 20 -11 21 -28 2z" class="svg-elem-82"></path>
    <path d="M2834 259 c-3 -5 5 -9 18 -10 13 0 38 -2 56 -4 19 -1 30 1 25 5 -13
    12 -92 19 -99 9z" class="svg-elem-83"></path>
    <path d="M2960 250 c20 -13 40 -13 40 0 0 6 -12 10 -27 10 -22 0 -25 -2 -13
    -10z" class="svg-elem-84"></path>
    </g>
    </svg>